<?xml version="1.0" standalone="no"?>
<!DOCTYPE svg PUBLIC "-//W3C//DTD SVG 20010904//EN"
 "http://www.w3.org/TR/2001/REC-SVG-20010904/DTD/svg10.dtd">
<svg version="1.0" xmlns="http://www.w3.org/2000/svg"
 width="250.000000pt" height="103.000000pt" viewBox="0 0 250.000000 103.000000"
 preserveAspectRatio="xMidYMid meet">

<g transform="translate(0.000000,103.000000) scale(0.100000,-0.100000)"
fill="#000000" stroke="none">
<path d="M82 964 l-22 -15 0 -428 c0 -319 3 -430 12 -439 17 -17 459 -17 476
0 15 15 17 188 2 188 -6 0 -10 -33 -10 -79 0 -113 3 -111 -230 -111 -152 0
-190 3 -208 16 l-22 15 0 414 c0 399 1 415 19 425 12 6 98 10 211 10 113 0
199 -4 211 -10 15 -9 19 -22 19 -65 0 -29 5 -57 10 -60 6 -4 10 18 10 59 0 96
1 96 -250 96 -170 0 -209 -3 -228 -16z"/>
<path d="M220 895 c0 -9 5 -15 11 -13 6 2 11 8 11 13 0 5 -5 11 -11 13 -6 2
-11 -4 -11 -13z"/>
<path d="M282 898 c3 -9 24 -13 61 -13 79 0 77 19 -2 23 -48 2 -62 0 -59 -10z"/>
<path d="M847 568 c-43 -183 -77 -339 -77 -346 0 -10 17 -12 68 -10 l67 3 35
152 34 152 66 3 65 3 16 65 16 65 -63 3 c-35 2 -64 5 -64 7 0 2 5 27 11 55
l11 50 68 0 69 0 10 38 c5 20 12 49 15 65 l6 27 -138 0 -138 0 -77 -332z"/>
<path d="M1235 888 c-5 -14 -155 -665 -155 -673 0 -3 29 -5 64 -5 53 0 66 3
70 18 3 9 37 154 76 322 38 168 72 315 75 328 5 21 3 22 -60 22 -43 0 -67 -4
-70 -12z"/>
<path d="M1391 843 c-15 -75 -16 -71 27 -75 l38 -3 -63 -270 c-34 -148 -62
-273 -63 -277 0 -5 31 -8 68 -8 l69 0 64 280 64 280 43 0 c23 0 42 3 42 8 1 4
7 33 14 65 l14 57 -153 0 -152 0 -12 -57z"/>
<path d="M1671 577 c-41 -177 -76 -332 -79 -345 -4 -22 -3 -23 63 -20 l68 3
39 160 38 160 -5 -162 -5 -163 69 0 69 0 7 32 c4 18 38 168 76 333 38 164 69
305 69 312 0 9 -18 13 -64 13 l-64 0 -27 -117 c-43 -190 -45 -191 -40 -30 l5
147 -72 0 -73 0 -74 -323z"/>
<path d="M2116 657 c-44 -133 -94 -288 -112 -344 l-32 -103 67 0 68 0 14 52
c14 53 14 53 57 56 l44 3 -7 -55 -7 -56 66 0 c36 0 66 3 66 8 0 4 20 156 45
337 25 182 45 333 45 338 0 4 -53 7 -117 7 l-118 0 -79 -243z m148 -42 c-13
-88 -24 -166 -24 -172 0 -15 -60 -18 -60 -4 0 17 101 344 105 339 1 -1 -8 -75
-21 -163z"/>
<path d="M123 828 c6 -19 368 -19 375 0 3 9 -39 12 -188 12 -149 0 -191 -3
-187 -12z"/>
<path d="M530 725 c-8 -9 -21 -13 -36 -9 -26 7 -48 -7 -65 -38 -8 -14 -1 -27
32 -63 l41 -44 -83 -91 c-46 -49 -86 -90 -89 -90 -4 0 -21 16 -40 35 -40 42
-58 44 -90 10 -20 -22 -22 -29 -12 -45 7 -12 8 -21 2 -25 -6 -3 -15 -15 -20
-26 -9 -15 -6 -24 14 -44 22 -22 24 -29 14 -45 -11 -17 -9 -24 15 -47 24 -25
30 -26 48 -15 18 12 24 11 43 -7 26 -25 49 -27 66 -6 7 9 22 12 38 9 20 -4 33
1 51 20 23 24 23 26 7 50 -9 14 -27 33 -41 42 -14 9 -25 21 -25 26 0 6 39 51
87 99 l87 89 41 -40 c22 -22 45 -40 51 -40 22 0 57 49 51 71 -3 12 1 32 10 46
15 23 14 25 -12 54 -22 22 -26 32 -17 41 19 19 14 32 -19 57 -24 18 -33 20
-45 10 -12 -10 -19 -8 -37 10 -27 25 -50 27 -67 6z m119 -89 c55 -55 62 -67
52 -80 -10 -12 -18 -13 -32 -5 -29 15 -25 -12 6 -41 19 -18 22 -26 13 -37 -6
-8 -17 -13 -23 -11 -7 2 -58 47 -115 101 -86 81 -100 100 -90 112 20 24 31 19
96 -46 34 -34 64 -57 67 -52 4 5 -16 31 -43 58 -41 40 -47 51 -37 66 14 23 27
16 106 -65z m28 18 c-9 -10 -38 16 -31 28 4 6 13 4 22 -6 9 -8 13 -19 9 -22z
m-143 -110 c9 -3 16 -11 16 -18 0 -6 -40 -51 -88 -99 -77 -76 -90 -86 -101
-73 -11 13 0 29 70 106 46 49 84 90 86 90 1 0 8 -3 17 -6z m-184 -209 c99 -99
103 -106 87 -122 -16 -16 -18 -15 -47 12 -30 29 -54 29 -30 0 11 -13 10 -19
-3 -33 -16 -15 -22 -12 -94 60 -65 66 -75 79 -64 92 12 14 19 10 64 -29 29
-25 55 -45 59 -45 20 0 3 24 -57 77 -60 54 -63 58 -48 75 9 10 19 18 22 18 4
0 53 -47 111 -105z m-90 -116 c0 -11 -11 -11 -29 0 -7 5 -10 14 -6 20 5 9 10
9 21 0 8 -6 14 -15 14 -20z"/>
<path d="M1885 180 c-3 -5 -2 -10 4 -10 5 0 13 5 16 10 3 6 2 10 -4 10 -5 0
-13 -4 -16 -10z"/>
<path d="M840 150 c0 -5 7 -10 15 -10 10 0 15 -11 15 -35 0 -24 5 -35 15 -35
10 0 15 11 15 35 0 24 5 35 15 35 8 0 15 5 15 10 0 6 -20 10 -45 10 -25 0 -45
-4 -45 -10z"/>
<path d="M950 120 c0 -35 3 -40 27 -46 37 -10 57 7 61 50 2 27 -1 36 -12 36
-9 0 -16 -12 -18 -32 -4 -46 -28 -49 -28 -4 0 25 -4 36 -15 36 -11 0 -15 -11
-15 -40z"/>
<path d="M1100 116 c0 -34 4 -46 15 -46 8 0 15 6 15 14 0 8 10 16 23 18 16 2
22 10 22 28 0 22 -5 25 -37 28 l-38 3 0 -45z m50 14 c0 -5 -4 -10 -10 -10 -5
0 -10 5 -10 10 0 6 5 10 10 10 6 0 10 -4 10 -10z"/>
<path d="M1200 115 l0 -45 90 2 c98 3 94 -1 69 66 -14 36 -44 28 -58 -16 -12
-34 -16 -38 -42 -34 -25 4 -29 8 -29 38 0 24 -5 34 -15 34 -11 0 -15 -12 -15
-45z m140 -1 c0 -8 -5 -12 -10 -9 -6 4 -8 11 -5 16 9 14 15 11 15 -7z"/>
<path d="M1400 115 c0 -25 5 -45 10 -45 6 0 10 10 10 22 l0 21 23 -21 c36 -33
47 -28 47 23 0 33 -4 45 -15 45 -9 0 -15 -9 -16 -22 l0 -23 -16 23 c-26 37
-43 28 -43 -23z"/>
<path d="M1590 150 c0 -5 7 -10 15 -10 10 0 15 -11 15 -35 0 -24 5 -35 15 -35
10 0 15 11 15 35 0 24 5 35 15 35 8 0 15 5 15 10 0 6 -20 10 -45 10 -25 0 -45
-4 -45 -10z"/>
<path d="M1690 126 c0 -40 19 -59 57 -54 25 3 28 7 31 46 2 33 0 42 -12 42
-12 0 -16 -10 -16 -36 0 -45 -24 -42 -28 4 -5 45 -32 43 -32 -2z"/>
<path d="M1850 115 l0 -45 40 0 c22 0 40 5 40 10 0 6 -11 10 -25 10 -14 0 -25
5 -25 10 0 6 9 10 20 10 27 0 25 18 -2 23 -20 4 -19 4 5 6 43 2 32 21 -13 21
l-40 0 0 -45z"/>
<path d="M1950 152 c0 -4 5 -13 11 -19 8 -8 6 -18 -6 -37 -14 -21 -15 -26 -3
-26 8 0 20 6 27 13 11 10 14 10 18 0 3 -7 13 -13 24 -13 19 0 19 1 3 26 -13
19 -14 28 -5 37 15 15 14 27 -4 27 -8 0 -15 -5 -15 -12 0 -9 -3 -9 -12 0 -14
14 -38 16 -38 4z"/>
<path d="M2050 115 c0 -33 4 -45 15 -45 11 0 15 12 15 45 0 33 -4 45 -15 45
-11 0 -15 -12 -15 -45z"/>
<path d="M2100 150 c0 -5 7 -10 15 -10 10 0 15 -11 15 -35 0 -24 5 -35 15 -35
10 0 15 11 15 35 0 24 5 35 15 35 8 0 15 5 15 10 0 6 -20 10 -45 10 -25 0 -45
-4 -45 -10z"/>
<path d="M2204 146 c-9 -23 0 -58 17 -69 41 -26 91 22 68 65 -12 22 -77 25
-85 4z m59 -18 c6 -19 -3 -38 -19 -38 -8 0 -14 10 -14 25 0 26 25 35 33 13z"/>
<path d="M1510 75 c0 -14 5 -25 10 -25 6 0 10 11 10 25 0 14 -4 25 -10 25 -5
0 -10 -11 -10 -25z"/>
</g>
</svg>
